<?xml version="1.0" encoding="utf-8"?>
<!-- Generator: Adobe Illustrator 26.2.1, SVG Export Plug-In . SVG Version: 6.00 Build 0)  -->
<svg version="1.1" id="a" xmlns="http://www.w3.org/2000/svg" xmlns:xlink="http://www.w3.org/1999/xlink" x="0px" y="0px"
	 viewBox="0 0 2402.8 1471.3" style="enable-background:new 0 0 2402.8 1471.3;" xml:space="preserve">
<style type="text/css">
	.st0{fill:#003EF3;}
	.st1{fill:#324CBD;}
	.st2{fill:#1E46D2;}
	.st3{fill:#2648C7;}
	.st4{fill:#5863B0;}
	.st5{fill:#1343DD;}
	.st6{fill:#3F53B3;}
	.st7{fill:#0A41E8;}
</style>
<path class="st0" d="M624.3,731.7c-31,0.1-61.9,0.1-92.9,0c-1.7,0-2,0.5-2,2.1c0.1,10.8,0.1,21.6,0,32.4c0,1.9,0.6,2.3,2.4,2.3
	c14.4-0.1,28.8-0.1,43.2-0.1c0.9,0,1.8,0.1,2.7,0.2c3.2-0.3,6.4-0.5,9.5,0.1c-0.3,1.9-1.1,3.5-1.8,5.2c-3.9,9.9-10.2,17.8-19.1,23.8
	c-9.7,6.5-20.5,9.5-31.9,10.4c-11.6,0.9-23-0.4-34-4.8c-11.9-4.6-21.3-12.3-29-22.2c-7-9-11.4-19.3-13.8-30.4
	c-1-4.5-1.9-9.1-1.7-13.8c-0.6-1-0.4-2.1-0.4-3.2v-9.5c0-0.9-0.2-1.8,0.4-2.7l0,0c-0.3-3.6,0.7-7,1.3-10.5
	c1.4-8.1,4.3-15.7,8.3-22.8c3.9-7.1,9-13.4,15.1-18.9c0.8-0.7,1.3-0.6,1.8,0.2c1.1,1.7,2.6,3.2,3.8,4.8c5.6,7.3,12.1,13.8,19.4,19.2
	c9.9,7.3,21,12,33.4,13.4c0.9,0,1.8-0.2,2.5,0.4c1.3,0,2.6,0.1,4,0.1c1.2,0,2.5-0.3,3.7,0.4l0,0c0.3-0.2,0.7-0.2,1,0
	c1.7-0.5,3.5-0.4,5.2-0.3c4.7-0.7,9.5-1.3,14-3.2c15.5-6.5,24.8-17.8,26.1-34.9v-2.5c-0.4-3.1-0.5-6.3-1.3-9.2
	c-3.5-12.6-11-22.5-21.9-29.8c-12-8.1-25.5-11.5-39.7-12.3c-12.3-0.8-24.5,0.6-36.4,4.1c-1.5,0.4-1.8-0.1-2.4-1.1
	c-4.4-7.3-8.6-14.7-13.3-21.8c-8.5-12.8-18.1-24.7-30.2-34.3c-14.9-11.8-32.1-17.8-51-18.9c-7.1-0.4-14.3,0-21.4,1.1
	c-13,2-25.5,6.1-37.4,11.7c-9,4.3-17.4,9.7-25.7,15.2c-1.4,1-1.9,2.1-0.7,3.5c0.8,1,1.7,2,2.5,3c6.2,7.7,12.6,15.3,18.8,23
	c0.6,0.8,0.8,0.7,1.4,0.2c7.6-5.9,15.9-10.5,24.7-14.3c8.3-3.5,16.8-6.2,25.9-6.7c0.8-0.5,1.7-0.5,2.6-0.4c3.1,0,6.1,0.1,9.1,0.3
	c6.3,0.3,12.4,1.7,18,4.4c10.3,4.9,18.3,12.7,25.1,21.7c7.1,9.4,13.3,19.4,19.2,29.5c0.4,0.7,0.7,0.9-0.2,1.6
	c-2.9,2.2-5.8,4.6-8.4,7.2c-6.6,6.6-12.3,13.8-17.2,21.7c-5.6,9-9.5,18.8-12.5,28.8c-2.5,8.6-4.1,17.4-4.2,26.4c0,1,0.1,2.1-0.4,3.1
	l0,0c0,4.5-0.4,9,0,13.4c0.7,7.2,1.7,14.5,3.4,21.6c2.2,9.4,5.4,18.5,9.8,27c3.2,6.2,7.1,12.1,11.4,17.7c5.6,7.2,12,13.5,19.2,19
	c6.9,5.3,14.4,9.7,22.5,13.1c11.8,5,24,7.6,36.7,8.2c9,0.5,17.9,0,26.7-1.6c10.6-1.9,20.8-5.2,30.5-10.2
	c11.3-5.8,20.9-13.6,28.6-23.5c11.3-14.7,17-31.6,18.6-50c0-1-0.3-2.1,0.4-3c0-7.6,0-15.1,0-22.7
	C626.4,732.3,626.2,731.7,624.3,731.7L624.3,731.7z M550.1,657.3c3.4,1.9,6.2,4.5,7.9,8c1.4,2.9,0.7,4.2-2.5,4.9
	c-3.4,0.7-6.8,0.8-10.2,0.4c-11.2-1.2-19.9-7-27-15.5c-0.7-0.8-1.7-1.3-2-2.6C528.1,651.5,539.5,651.4,550.1,657.3L550.1,657.3z"/>
<path class="st1" d="M1575.4,808.1c-2.4,0.1-4.8-0.3-7.1-0.8c-11.4-2.5-19.5-9.8-26.3-18.7c-3.9-5.1-5.7-11.2-8.7-16.8
	c-1.1-2-0.9-2.8,1.1-3.9c8.7-4.6,16-10.8,22-18.5c9.9-12.7,15.4-27.2,16.5-43.2c0.8-12-0.6-23.8-4.9-35.2
	c-5.5-14.6-14.6-26.3-27.3-35.2c-13.9-9.7-29.3-14.9-46.2-15.5c-1.1,0.1-2.2,0.1-3.2-0.2c-0.2,0-0.3-0.1-0.5-0.1c-1,0-2,0.1-3,0.1
	c-28.1,0-56.1,0-84.2,0c-1.9,0-2.5,0.5-2.5,2.4c0.1,5.8,0.1,11.7,0.1,17.5c0,65.7,0,131.3-0.1,197c0,2.2,0.5,2.8,2.7,2.7
	c10.6-0.1,21.2-0.1,31.7,0c2,0,2.4-0.6,2.4-2.5c-0.1-18.4,0-36.8-0.1-55.2c0-2.2,0.4-2.9,2.8-2.9c14.4,0.1,28.8,0.1,43.2,0
	c10.6,0,14.5,4.2,17.8,12c3.8,9.2,8.9,17.7,15.4,25.1c7.6,8.9,16.6,16.3,27.4,21.3c9.9,4.5,20.2,7.1,31,7.5c1.5,0,2-0.4,1.9-1.9
	c-0.1-11-0.1-22,0-33C1577.5,808.5,1576.9,808,1575.4,808.1L1575.4,808.1z M1504.5,740.7c-6.2,1.5-12.5,1.7-18.8,1.7
	c-15.1,0-30.2,0-45.2,0c-2,0-2.5-0.6-2.4-2.5c0.1-13.5,0-27,0-40.4c0-13.5,0.1-26.8-0.1-40.2c0-2.1,0.6-2.6,2.6-2.5
	c18.1,0.1,36.2-0.4,54.2,0.2c19.4,0.6,35.4,12.3,40.2,32.1c3.1,12.9,1.5,25.1-6.3,36.1C1522.8,733.5,1514.4,738.4,1504.5,740.7
	L1504.5,740.7z"/>
<path class="st2" d="M1180.1,836.2c0-71.2,0-142.4,0-213.7c0-2-0.4-2.6-2.6-2.6c-11.2,0.1-22.5,0-33.7,0c-0.1,1.1-0.2,2.1-0.2,3.2
	c0,38.9,0,77.8,0,116.8c0,0.9,0.5,2-0.5,2.7c-0.6,0-1.2,0.1-1.7,0.1c-33,0-66,0-99,0c-0.6,0-1.2-0.1-1.7-0.1c-1-0.8-0.5-1.8-0.5-2.7
	c0-38.9,0-77.8,0-116.8c0-1.1-0.1-2.1-0.2-3.2l0,0c-12.1,0-24.1,0-36.2,0c-0.1,1-0.2,2-0.2,3c0,71.3,0,142.6,0,213.9
	c0,2.2,0.4,2.9,2.8,2.9c10.5-0.1,21-0.1,31.5,0c1.8,0,2.3-0.4,2.3-2.3c-0.1-18.4-0.1-36.8,0-55.2c0-0.8-0.5-1.8,0.5-2.5
	c0.7,0,1.3-0.1,2-0.1c32.8,0,65.7,0,98.5,0c0.7,0,1.3,0.1,2,0.1c1,0.7,0.4,1.7,0.4,2.5c0,18.3,0.1,36.6,0,54.9
	c0,2.1,0.5,2.6,2.6,2.6c10.5-0.1,21,0,31.5-0.1c0.8,0,1.7-0.1,2.5-0.2l0,0C1180.1,838.3,1180,837.3,1180.1,836.2L1180.1,836.2z"/>
<path class="st3" d="M1361.1,656.9c2.1,0,2.6-0.5,2.6-2.6c-0.1-10.7-0.1-21.3,0-32c0-1.8-0.4-2.4-2.3-2.4
	c-43.6,0.1-87.3,0.1-130.9,0c-1.9,0-2.3,0.6-2.3,2.4c0,72.4,0,144.8,0,217.2c1,0,2,0.1,3,0.1c43.1,0,86.3,0,129.4,0c1,0,2,0,3-0.1
	c0-12.1,0-24.2,0-36.3c-10.8,0-21.7-0.1-32.5-0.1c-21.4,0-42.8,0-64.2,0c-1.5,0-2.3-0.1-2.3-2c0.1-17.7,0-35.4,0.1-53.1
	c0-0.6-0.4-1.4,0.5-1.7c1,0,2-0.1,3-0.1c22.5,0,45,0,67.5,0.1c2.1,0,2.6-0.6,2.6-2.6c-0.1-10.7-0.1-21.3,0-32c0-1.9-0.4-2.4-2.3-2.3
	c-16.2,0.1-32.3,0.1-48.5,0c-7.4,0-14.8-0.1-22.2-0.1c-0.9-0.4-0.5-1.1-0.5-1.7c0-16.3,0-32.6,0-48.8c0-0.6-0.4-1.4,0.5-1.7
	c1,0,2-0.1,3-0.1C1299.1,656.8,1330.1,656.8,1361.1,656.9L1361.1,656.9z"/>
<path class="st4" d="M1913.3,628.2c-8.8-5.5-17.5-11.2-26.2-16.9c-1.6-1-2.2-0.7-3.2,0.7c-13.3,20.8-26.7,41.6-40.1,62.3
	c-7.7,11.9-15.4,23.9-23.1,35.9c-0.3-0.3-0.5-0.4-0.6-0.5c-14.1-22-28.2-43.9-42.3-65.9c-6.8-10.6-13.7-21.3-20.5-31.9
	c-0.5-0.7-0.6-2.2-2.3-1.1c-9.4,6.1-18.8,12-28.3,18c-1.1,0.7-1.4,1-0.5,2.2c3.4,4.9,6.5,10,9.7,15c21.8,33.8,43.5,67.5,65.3,101.2
	c0.8,1.3,1.2,2.6,1.2,4.2c0,28.5,0,56.9-0.1,85.4c0,2.1,0.3,2.8,2.7,2.8c10.4-0.1,20.8-0.1,31.2,0c2.2,0,2.8-0.5,2.7-2.7
	c-0.1-25.4,0.2-50.8-0.2-76.1c-0.1-7.7,1.8-14,6-20.5c23.3-35.9,46.3-72,69.4-108C1915.5,630.4,1915.5,629.5,1913.3,628.2
	L1913.3,628.2z"/>
<path class="st5" d="M975.3,622.2c0-1.6-0.3-2.3-2.1-2.3c-55.2,0.1-110.5,0.1-165.7,0.1c-1.8,0-2.2,0.5-2.2,2.2
	c0.1,10.7,0.1,21.5,0,32.2c0,2,0.6,2.4,2.5,2.4c20.3-0.1,40.7,0,61-0.1c2.4,0,3.2,0.4,3.2,3c-0.1,59.9-0.1,119.8-0.1,179.7h37
	c0-59.9,0-119.8-0.1-179.7c0-2.6,0.8-3,3.2-3c20.4,0.1,40.8,0,61.2,0.1c1.7,0,2.2-0.4,2.2-2.2C975.2,643.9,975.2,633,975.3,622.2
	L975.3,622.2z"/>
<path class="st6" d="M1748.8,803.1c-31.1,0.1-62.1,0-93.2,0.1c-2.5,0-3.1-0.5-3.1-3.1c0.1-59.9,0.1-119.8,0.1-179.7H1616
	c0,72.1,0,144.3-0.1,216.4c0,2.3,0.6,2.8,2.9,2.8c43.4-0.1,86.8-0.1,130.2,0c1.9,0,2.5-0.4,2.5-2.4c-0.1-10.5-0.1-21,0-31.5
	C1751.5,803.5,1750.9,803.1,1748.8,803.1L1748.8,803.1z"/>
<path class="st7" d="M782.3,759.8c0-0.2-0.1-0.3-0.2-0.5l0,0c-4.1-11.9-8.2-23.7-12.3-35.6c-6.6-19.4-13-38.8-19.6-58.1
	c-4.9-14.5-10-29-14.8-43.6c-0.8-2.5-2.1-2.9-4.1-2.9c-5.2,0-10.3,0-16.6,0c-4.8,0.2-10.8-0.3-16.8,0.2c-1.3,0.1-1.7,0.6-2,1.6
	c-2.2,6.7-4.3,13.4-6.6,20.1c-4.1,12-8.3,23.9-12.4,35.9c-3.5,10.4-7,20.8-10.5,31.2c-2.8,8.2-5.5,16.4-8.3,24.6
	c-3.4,9.8-6.8,19.5-10.1,29.3c-0.9,2.6-0.3,3.3,2.5,4c0.3,0.1,0.6,0.1,0.9,0.2c8.3,2.8,16.6,5.7,25,8.5c1.6,0.6,2.5,0.2,3.1-1.6
	c0.8-2.5,1.7-5,2.6-7.5h0l26.1-76.3c1.1-3.2,2.2-6.4,3.3-9.6c1.3-3.8,2.5-7.6,4-11.8c2,2.1,2.2,4.5,3,6.6c1.8,5.2,3.6,10.4,5.4,15.6
	l0,0l0.2,0.5c2.8,8,5.5,16.1,8.3,24.1c0.7,2,1.2,4.1,2,6.1c0.1,0.3,0.2,0.6,0.2,0.8l14.9,44.1h0c0.9,2.6,1.8,5.1,2.6,7.7
	c0.5,1.6,1.1,1.8,2.7,1.3c8-2.8,16-5.4,24.1-8.1c1.7-0.6,4.1-0.5,4.9-1.9C784.3,763.4,782.4,761.6,782.3,759.8z"/>
</svg>
